<?xml version="1.0" encoding="UTF-8" standalone="no"?>
<svg
   width="24.016684"
   height="24"
   viewBox="0 0 24.016684 24"
   fill="currentColor"
   class="icon icon-tabler icons-tabler-filled icon-tabler-heart"
   version="1.1"
   id="svg2"
   xmlns="http://www.w3.org/2000/svg"
   xmlns:svg="http://www.w3.org/2000/svg">
  <defs
     id="defs2" />
  <path
     stroke="none"
     d="M 0.01668335,0 H 24.016683 V 24 H 0.01668335 Z"
     fill="none"
     id="path1" />
  <path
     d="m 5.991666,1.2872549 a 7.2017784,7.2017784 0 0 1 5.987078,1.7104223 l 0.04441,0.03961 0.04081,-0.036009 a 7.2017784,7.2017784 0 0 1 5.681003,-1.7284268 l 0.295273,0.043211 a 7.2017784,7.2017784 0 0 1 4.037797,12.0125656 l -0.216054,0.222055 -0.05761,0.04921 -8.942208,8.856987 A 1.2002964,1.2002964 0 0 1 11.286176,22.5553 L 11.173345,22.456882 2.1795247,13.548283 A 7.2017784,7.2017784 0 0 1 5.991666,1.2872549 Z"
     id="path2"
     style="fill:#ef4e79;fill-opacity:1;stroke-width:1.2003" />
</svg>
