<?xml version="1.0" encoding="UTF-8" standalone="no"?>
<svg
   width="24"
   height="24"
   viewBox="0 0 24 24"
   fill="currentColor"
   class="icon icon-tabler icons-tabler-filled icon-tabler-heart"
   version="1.1"
   id="svg2"
   sodipodi:docname="heart.svg"
   inkscape:version="1.4.2 (ebf0e940, 2025-05-08)"
   xmlns:inkscape="http://www.inkscape.org/namespaces/inkscape"
   xmlns:sodipodi="http://sodipodi.sourceforge.net/DTD/sodipodi-0.dtd"
   xmlns="http://www.w3.org/2000/svg"
   xmlns:svg="http://www.w3.org/2000/svg">
  <defs
     id="defs2" />
  <sodipodi:namedview
     id="namedview2"
     pagecolor="#ffffff"
     bordercolor="#000000"
     borderopacity="0.25"
     inkscape:showpageshadow="2"
     inkscape:pageopacity="0.0"
     inkscape:pagecheckerboard="0"
     inkscape:deskcolor="#d1d1d1"
     showguides="false"
     inkscape:zoom="25.02478"
     inkscape:cx="11.848256"
     inkscape:cy="11.22887"
     inkscape:window-width="1712"
     inkscape:window-height="1069"
     inkscape:window-x="0"
     inkscape:window-y="43"
     inkscape:window-maximized="0"
     inkscape:current-layer="svg2" />
  <path
     stroke="none"
     d="M0 0h24v24H0z"
     fill="none"
     id="path1" />
  <path
     d="m 5.9749826,1.2872549 a 7.2017784,7.2017784 0 0 1 5.9870784,1.7104223 l 0.04441,0.03961 0.04081,-0.036009 a 7.2017784,7.2017784 0 0 1 5.681003,-1.7284268 l 0.295273,0.043211 a 7.2017784,7.2017784 0 0 1 4.037797,12.0125656 l -0.216054,0.222055 -0.05761,0.04921 -8.942208,8.856987 A 1.2002964,1.2002964 0 0 1 11.269493,22.5553 L 11.156662,22.456882 2.1628413,13.548283 A 7.2017784,7.2017784 0 0 1 5.9749826,1.2872549 Z"
     id="path2"
     style="stroke-width:1.2003;fill:#ef4e79;fill-opacity:1" />
</svg>
